# xmcd
#
# Track frame offsets: 
#        150
#        15420
#        32680
#        54612
#        80395
#        98522
#        120170
#        142330
#        151687
#        168067
#        187505
#        201592
#        220732
#        235320
#        253182
#        270970
#        284572
#        298325
#
# Disc length: 4226 seconds
#
# Revision: 4
# Processed by: cddbd v1.5.2PL0 Copyright (c) Steve Scherf et al.
# Submitted via: ExactAudioCopyFreeDBPlugin 1.0
#
DISCID=f4108012
DTITLE=Various Artist - Line Dance Fever 5
DYEAR=1998
DGENRE=Country
TTITLE0=Steps - 5,6,7,8 (Radio Edit)
TTITLE1=Sham Rock - I'll Tell Me Ma
TTITLE2=The Cheap Seats - Something In The Water
TTITLE3=Ronnie McDowell - Rockin' Pneumonia
TTITLE4=Kimber Clayton  - Same Hearts Tonight
TTITLE5=James Horn - Geronimo (Dance Mix)
TTITLE6=Will Faeber - Cowboys To Carry My Coffin
TTITLE7=David Schnaufer - Fisher's Hornpipe
TTITLE8=Barry Upton and Wild At Heart - Shooting From The Hip
TTITLE9=Scooter Lee - Baby Once I Get You (Club Mix)
TTITLE10=Alan  John Britton and Country FM - Everybody Is Linedancin'
TTITLE11=Kacey Jones - 1-900 Bubba
TTITLE12=Jeff Carson - Hangin' By A Thread
TTITLE13=Wynonna - Love Like That
TTITLE14=Sawyer Brown - This Night Won't Last Forever
TTITLE15=Tim McGraw - Two Steppin' Mind
TTITLE16=Rodney Atkins - In A Heartbeat
TTITLE17=Delbert McClinton - Go On
EXTD=
EXTT0=
EXTT1=
EXTT2=
EXTT3=
EXTT4=
EXTT5=
EXTT6=
EXTT7=
EXTT8=
EXTT9=
EXTT10=
EXTT11=
EXTT12=
EXTT13=
EXTT14=
EXTT15=
EXTT16=
EXTT17=
PLAYORDER=
